<mxfile
  host="Electron" 
  agent="Mozilla/5.0 (Macintosh; Intel Mac OS X 10_15_7) AppleWebKit/537.36 (KHTML, like Gecko) draw.io/25.0.2 Chrome/128.0.6613.186 Electron/32.2.5 Safari/537.36" 
  version="25.0.2"
  >
  <diagram
    name="-"
    >
    <mxGraphModel
      grid="1" 
      gridSize="10" 
      guides="1" 
      tooltips="1" 
      connect="1" 
      arrows="1" 
      fold="1" 
      page="1" 
      pageScale="1" 
      pageWidth="1" 
      pageHeight="1" 
      math="0" 
      shadow="0"
      >
      <root>
        <mxCell
          id="page"
          />
        <mxCell
          id="root" 
          parent="page"
          />
        <mxCell
          style="verticalAlign=top;aspect=fixed;align=center;spacingLeft=5;spacingRight=5;spacingBottom=5;strokeColor=none;" 
          id="shape_" 
          parent="root" 
          value=" " 
          vertex="1"
          >
          <mxGeometry
            as="geometry" 
            width="120" 
            height="120" 
            x="0" 
            y="0"
            />
          </mxCell>
        <mxCell
          style="rounded=1;whiteSpace=wrap;verticalAlign=top;align=center;shape=image;verticalLabelPosition=bottom;labelBackgroundColor=default;aspect=fixed;imageAspect=0;editableCssRules=.*;image=data:image/svg+xml,PHN2ZyB4bWxuczp4bGluaz0iaHR0cDovL3d3dy53My5vcmcvMTk5OS94bGluayIgeG1sbnM9Imh0dHA6Ly93d3cudzMub3JnLzIwMDAvc3ZnIiB2aWV3Qm94PSIwLjAwNzUwMDcwODEwMzE3OTkzMiAwLjAwMjUwMDA1NzIyMDQ1ODk4NDQgMjMuOTg5OTk3ODYzNzY5NTMgMjMuOTkwMDAxNjc4NDY2Nzk3IiB2ZXJzaW9uPSIxLjEiIGlkPSJMYXllcl8xIiB3aWR0aD0iMjMuOTg5OTk3ODYzNzY5NTMiIGhlaWdodD0iMjMuOTkwMDAxNjc4NDY2Nzk3Ij4mI3hhOyAgPHN0eWxlIHR5cGU9InRleHQvY3NzIj4mI3hhOwkJLnN0MHtzdG9wLWNvbG9yOiMwMGNlYWM7fSYjeGE7CQkuc3Qxe3N0b3AtY29sb3I6IzA3ODM4Zjt9JiN4YTsJICA8L3N0eWxlPiYjeGE7ICA8ZGVmcz4mI3hhOyAgICA8bGluZWFyR3JhZGllbnQgaWQ9IkEiIHgxPSIwIiB5MT0iMCIgeDI9IjI0IiB5Mj0iMjQiIGdyYWRpZW50VW5pdHM9InVzZXJTcGFjZU9uVXNlIj4mI3hhOyAgICAgIDxzdG9wIGNsYXNzPSJzdDAiLz4mI3hhOyAgICAgIDxzdG9wIG9mZnNldD0iMSIgY2xhc3M9InN0MSIvPiYjeGE7ICAgIDwvbGluZWFyR3JhZGllbnQ+JiN4YTsgIDwvZGVmcz4mI3hhOyAgPHBhdGggZmlsbD0idXJsKCNBKSIgZD0iTTIzLjU3LDMuOTFjLTEuOTUtLjY2LTIuODItMS41My0zLjQ4LTMuNDgtLjE5LS41Ny0uOTktLjU3LTEuMTgsMC0uNjYsMS45NS0xLjUzLDIuODItMy40OCwzLjQ4LS41Ny4xOS0uNTcsMSwwLDEuMiwxLjk1LjY2LDIuODIsMS41MywzLjQ4LDMuNDguMTkuNTcuOTkuNTcsMS4xOCwwLC42Ni0xLjk1LDEuNTMtMi44MiwzLjQ4LTMuNDguNTctLjE5LjU3LTEsMC0xLjJaTTE1LjY5LDE0LjY2Yy0zLjU3LTEuMjEtNS4xNi0yLjgtNi4zNy02LjM3LS4zNC0xLjAzLTEuODMtMS4wMy0yLjE3LDAtMS4yMSwzLjU3LTIuOCw1LjE2LTYuMzcsNi4zNy0xLjAzLjM2LTEuMDMsMS44NCwwLDIuMTksMy41NywxLjIxLDUuMTYsMi44LDYuMzcsNi4zNy4zNCwxLjAzLDEuODMsMS4wMywyLjE3LDAsMS4yMS0zLjU3LDIuOC01LjE2LDYuMzctNi4zNywxLjAzLS4zNiwxLjAzLTEuODQsMC0yLjE5WiIvPiYjeGE7PC9zdmc+;strokeColor=none;" 
          id="ai_highlight_" 
          parent="shape_" 
          value=" " 
          vertex="1"
          >
          <mxGeometry
            as="geometry" 
            width="60" 
            height="60" 
            x="30" 
            y="30"
            />
          </mxCell>
        </root>
      </mxGraphModel>
    </diagram>
  </mxfile>